<?xml version="1.0" standalone="no"?><svg xmlns="http://www.w3.org/2000/svg" viewBox="0 0 1440 320"><path fill="#ffe4e9" fill-opacity="1" d="M0,160L15,154.7C30,149,60,139,90,154.7C120,171,150,213,180,224C210,235,240,213,270,176C300,139,330,85,360,106.7C390,128,420,224,450,250.7C480,277,510,235,540,202.7C570,171,600,149,630,160C660,171,690,213,720,197.3C750,181,780,107,810,101.3C840,96,870,160,900,165.3C930,171,960,117,990,101.3C1020,85,1050,107,1080,133.3C1110,160,1140,192,1170,192C1200,192,1230,160,1260,165.3C1290,171,1320,213,1350,208C1380,203,1410,149,1425,122.7L1440,96L1440,320L1425,320C1410,320,1380,320,1350,320C1320,320,1290,320,1260,320C1230,320,1200,320,1170,320C1140,320,1110,320,1080,320C1050,320,1020,320,990,320C960,320,930,320,900,320C870,320,840,320,810,320C780,320,750,320,720,320C690,320,660,320,630,320C600,320,570,320,540,320C510,320,480,320,450,320C420,320,390,320,360,320C330,320,300,320,270,320C240,320,210,320,180,320C150,320,120,320,90,320C60,320,30,320,15,320L0,320Z"></path></svg>